{
.appVersion = "939";
copyright = "Copyright 2016 Google Inc. All Rights Reserved.";
customParameters = (
{
name = description;
value = "Designed by Monotype design team.";
},
{
name = license;
value = "This Font Software is licensed under the SIL Open Font License, Version 1.1. This Font Software is distributed on an \"AS IS\" BASIS, WITHOUT WARRANTIES OR CONDITIONS OF ANY KIND, either express or implied. See the SIL Open Font License for the specific language, permissions and limitations governing your use of this Font Software.";
},
{
name = licenseURL;
value = "http://scripts.sil.org/OFL";
},
{
name = vendorID;
value = GOOG;
},
{
name = trademark;
value = "Noto is a trademark of Google Inc.";
},
{
name = fsType;
value = (
);
},
{
name = panose;
value = (
2,
11,
5,
2,
4,
5,
4,
2,
2,
4
);
},
{
name = unicodeRanges;
value = (
57,
58
);
},
{
name = codePageRanges;
value = (
1252
);
},
{
name = glyphOrder;
value = (
.notdef,
null,
uni000D,
space,
u10900,
u10901,
u10902,
u10903,
u10904,
u10905,
u10906,
u10907,
u10908,
u10909,
u1090A,
u1090B,
u1090C,
u1090D,
u1090E,
u1090F,
u10910,
u10911,
u10912,
u10913,
u10914,
u10915,
u10916,
u10917,
u10918,
u10919,
two_ph,
three_ph,
u1091F
);
}
);
date = "2016-11-10 14:51:05 +0000";
designer = "Monotype Design Team";
designerURL = "http://www.monotype.com/studio";
disablesNiceNames = 1;
familyName = "Noto Sans Phoenician";
fontMaster = (
{
ascender = 2189;
capHeight = 1434;
customParameters = (
{
name = typoAscender;
value = 2189;
},
{
name = typoDescender;
value = -600;
},
{
name = typoLineGap;
value = 0;
},
{
name = winAscent;
value = 2189;
},
{
name = winDescent;
value = 600;
},
{
name = hheaAscender;
value = 2189;
},
{
name = hheaDescender;
value = -600;
},
{
name = underlinePosition;
value = -205;
},
{
name = underlineThickness;
value = 102;
}
);
descender = -600;
id = "E64F79EC-8E07-4F15-92A9-999769EA1F8E";
weightValue = 400;
widthValue = 5;
xHeight = 1024;
}
);
glyphs = (
{
glyphname = .notdef;
lastChange = "2016-11-10 14:50:51 +0000";
layers = (
{
layerId = "E64F79EC-8E07-4F15-92A9-999769EA1F8E";
paths = (
{
closed = 1;
nodes = (
"922 0 LINE",
"922 1462 LINE",
"102 1462 LINE",
"102 0 LINE"
);
},
{
closed = 1;
nodes = (
"201 1364 LINE",
"823 1364 LINE",
"823 98 LINE",
"201 98 LINE"
);
}
);
width = 1024;
}
);
note = .notdef;
},
{
glyphname = u10900;
lastChange = "2016-11-10 14:50:45 +0000";
layers = (
{
layerId = "E64F79EC-8E07-4F15-92A9-999769EA1F8E";
paths = (
{
closed = 1;
nodes = (
"1100 29 LINE",
"1074 178 OFFCURVE",
"1045 314 OFFCURVE",
"1014 438 CURVE",
"1197 445 OFFCURVE",
"1385 453 OFFCURVE",
"1580 464 CURVE",
"1557 626 LINE",
"1362 614 OFFCURVE",
"1167 604 OFFCURVE",
"971 596 CURVE",
"934 727 OFFCURVE",
"893 854 OFFCURVE",
"848 979 CURVE",
"997 1074 OFFCURVE",
"1148 1164 OFFCURVE",
"1300 1250 CURVE",
"1226 1399 LINE",
"1091 1320 OFFCURVE",
"947 1231 OFFCURVE",
"792 1130 CURVE",
"754 1231 OFFCURVE",
"705 1349 OFFCURVE",
"645 1484 CURVE",
"482 1406 LINE",
"544 1259 OFFCURVE",
"595 1132 OFFCURVE",
"634 1026 CURVE",
"520 951 OFFCURVE",
"385 859 OFFCURVE",
"228 750 CURVE SMOOTH",
"115 671 OFFCURVE",
"80 616 OFFCURVE",
"80 547 CURVE SMOOTH",
"80 463 OFFCURVE",
"136 421 OFFCURVE",
"263 421 CURVE SMOOTH",
"402 421 OFFCURVE",
"588 425 OFFCURVE",
"823 432 CURVE",
"861 287 OFFCURVE",
"895 134 OFFCURVE",
"924 -25 CURVE"
);
},
{
closed = 1;
nodes = (
"270 585 LINE",
"407 685 OFFCURVE",
"546 782 OFFCURVE",
"688 875 CURVE",
"724 770 OFFCURVE",
"755 674 OFFCURVE",
"780 588 CURVE",
"608 583 OFFCURVE",
"439 579 OFFCURVE",
"274 576 CURVE"
);
}
);
width = 1680;
}
);
note = u10900;
unicode = 10900;
},
{
glyphname = u10901;
lastChange = "2016-11-10 14:50:45 +0000";
layers = (
{
layerId = "E64F79EC-8E07-4F15-92A9-999769EA1F8E";
paths = (
{
closed = 1;
nodes = (
"609 67 OFFCURVE",
"778 161 OFFCURVE",
"897 260 CURVE SMOOTH",
"1016 359 OFFCURVE",
"1076 453 OFFCURVE",
"1076 542 CURVE SMOOTH",
"1076 597 OFFCURVE",
"1062 681 OFFCURVE",
"1035 792 CURVE SMOOTH",
"979 1015 OFFCURVE",
"898 1283 OFFCURVE",
"857 1386 CURVE SMOOTH",
"833 1447 OFFCURVE",
"793 1472 OFFCURVE",
"732 1472 CURVE SMOOTH",
"687 1472 OFFCURVE",
"645 1455 OFFCURVE",
"608 1421 CURVE SMOOTH",
"572 1389 LINE SMOOTH",
"431 1266 OFFCURVE",
"292 1116 OFFCURVE",
"151 961 CURVE SMOOTH",
"104 910 OFFCURVE",
"80 865 OFFCURVE",
"80 824 CURVE SMOOTH",
"80 763 OFFCURVE",
"110 732 OFFCURVE",
"169 732 CURVE SMOOTH",
"426 732 OFFCURVE",
"654 740 OFFCURVE",
"853 756 CURVE",
"872 673 OFFCURVE",
"881 607 OFFCURVE",
"881 558 CURVE SMOOTH",
"881 514 OFFCURVE",
"860 468 OFFCURVE",
"817 421 CURVE SMOOTH",
"732 325 OFFCURVE",
"481 186 OFFCURVE",
"313 127 CURVE",
"390 -22 LINE"
);
},
{
closed = 1;
nodes = (
"315 893 LINE",
"311 902 LINE",
"431 1046 OFFCURVE",
"586 1198 OFFCURVE",
"702 1281 CURVE",
"744 1157 OFFCURVE",
"782 1034 OFFCURVE",
"816 912 CURVE",
"629 899 OFFCURVE",
"479 892 OFFCURVE",
"365 892 CURVE SMOOTH"
);
}
);
width = 1276;
}
);
note = u10901;
unicode = 10901;
},
{
glyphname = u10902;
lastChange = "2016-11-10 14:50:45 +0000";
layers = (
{
layerId = "E64F79EC-8E07-4F15-92A9-999769EA1F8E";
paths = (
{
closed = 1;
nodes = (
"985 42 LINE",
"974 569 OFFCURVE",
"863 1187 OFFCURVE",
"772 1406 CURVE SMOOTH",
"757 1442 OFFCURVE",
"737 1474 OFFCURVE",
"682 1474 CURVE SMOOTH",
"648 1474 OFFCURVE",
"614 1462 OFFCURVE",
"581 1439 CURVE SMOOTH",
"374 1301 OFFCURVE",
"190 1134 OFFCURVE",
"30 938 CURVE",
"149 817 LINE",
"270 960 OFFCURVE",
"399 1084 OFFCURVE",
"619 1245 CURVE",
"648 1162 OFFCURVE",
"677 1035 OFFCURVE",
"706 862 CURVE SMOOTH",
"763 517 OFFCURVE",
"786 280 OFFCURVE",
"793 0 CURVE"
);
}
);
width = 1185;
}
);
note = u10902;
unicode = 10902;
},
{
glyphname = u10903;
lastChange = "2016-11-10 14:50:45 +0000";
layers = (
{
layerId = "E64F79EC-8E07-4F15-92A9-999769EA1F8E";
paths = (
{
closed = 1;
nodes = (
"1244 271 LINE",
"1199 427 OFFCURVE",
"1107 664 OFFCURVE",
"1006 892 CURVE SMOOTH",
"905 1119 OFFCURVE",
"799 1317 OFFCURVE",
"727 1406 CURVE SMOOTH",
"690 1450 OFFCURVE",
"655 1472 OFFCURVE",
"621 1472 CURVE SMOOTH",
"578 1472 OFFCURVE",
"537 1455 OFFCURVE",
"500 1421 CURVE SMOOTH",
"424 1353 OFFCURVE",
"305 1176 OFFCURVE",
"225 1025 CURVE SMOOTH",
"144 874 OFFCURVE",
"100 750 OFFCURVE",
"100 662 CURVE SMOOTH",
"100 603 OFFCURVE",
"190 573 OFFCURVE",
"369 573 CURVE SMOOTH",
"526 573 OFFCURVE",
"778 602 OFFCURVE",
"925 638 CURVE",
"988 481 OFFCURVE",
"1037 342 OFFCURVE",
"1072 219 CURVE"
);
},
{
closed = 1;
nodes = (
"369 736 OFFCURVE",
"335 739 OFFCURVE",
"314 744 CURVE",
"310 753 LINE",
"330 864 OFFCURVE",
"460 1104 OFFCURVE",
"599 1281 CURVE",
"676 1181 OFFCURVE",
"778 982 OFFCURVE",
"863 786 CURVE",
"670 753 OFFCURVE",
"520 736 OFFCURVE",
"415 736 CURVE SMOOTH"
);
}
);
width = 1344;
}
);
note = u10903;
unicode = 10903;
},
{
glyphname = u10904;
lastChange = "2016-11-10 14:50:45 +0000";
layers = (
{
layerId = "E64F79EC-8E07-4F15-92A9-999769EA1F8E";
paths = (
{
closed = 1;
nodes = (
"1325 31 LINE",
"1174 659 OFFCURVE",
"1048 1027 OFFCURVE",
"867 1404 CURVE SMOOTH",
"848 1441 OFFCURVE",
"821 1472 OFFCURVE",
"758 1472 CURVE SMOOTH",
"713 1472 OFFCURVE",
"667 1455 OFFCURVE",
"618 1421 CURVE SMOOTH",
"479 1325 OFFCURVE",
"394 1265 OFFCURVE",
"361 1242 CURVE SMOOTH",
"296 1194 OFFCURVE",
"223 1142 OFFCURVE",
"100 1047 CURVE",
"187 911 LINE",
"374 1050 OFFCURVE",
"556 1172 OFFCURVE",
"734 1279 CURVE",
"767 1222 OFFCURVE",
"803 1142 OFFCURVE",
"844 1039 CURVE",
"655 902 OFFCURVE",
"464 778 OFFCURVE",
"269 667 CURVE",
"347 525 LINE",
"556 646 OFFCURVE",
"741 764 OFFCURVE",
"902 881 CURVE",
"932 796 OFFCURVE",
"960 711 OFFCURVE",
"986 626 CURVE",
"815 481 OFFCURVE",
"626 353 OFFCURVE",
"421 241 CURVE",
"499 99 LINE",
"704 214 OFFCURVE",
"883 333 OFFCURVE",
"1037 458 CURVE",
"1082 303 OFFCURVE",
"1123 142 OFFCURVE",
"1162 -25 CURVE"
);
}
);
width = 1445;
}
);
note = u10904;
unicode = 10904;
},
{
glyphname = u10905;
lastChange = "2016-11-10 14:50:45 +0000";
layers = (
{
layerId = "E64F79EC-8E07-4F15-92A9-999769EA1F8E";
paths = (
{
closed = 1;
nodes = (
"1096 124 LINE",
"949 291 OFFCURVE",
"853 593 OFFCURVE",
"853 905 CURVE SMOOTH",
"853 1057 OFFCURVE",
"888 1180 OFFCURVE",
"1007 1389 CURVE",
"848 1486 LINE",
"741 1218 OFFCURVE",
"588 1084 OFFCURVE",
"389 1084 CURVE SMOOTH",
"290 1084 OFFCURVE",
"230 1142 OFFCURVE",
"230 1246 CURVE SMOOTH",
"230 1303 OFFCURVE",
"244 1354 OFFCURVE",
"272 1397 CURVE",
"100 1473 LINE",
"57 1394 OFFCURVE",
"35 1317 OFFCURVE",
"35 1241 CURVE SMOOTH",
"35 1053 OFFCURVE",
"171 922 OFFCURVE",
"380 922 CURVE SMOOTH",
"481 922 OFFCURVE",
"574 943 OFFCURVE",
"661 985 CURVE",
"659 937 LINE",
"659 894 LINE SMOOTH",
"659 535 OFFCURVE",
"784 159 OFFCURVE",
"961 -16 CURVE"
);
}
);
width = 1276;
}
);
note = u10905;
unicode = 10905;
},
{
glyphname = u10906;
lastChange = "2016-11-10 14:50:45 +0000";
layers = (
{
layerId = "E64F79EC-8E07-4F15-92A9-999769EA1F8E";
paths = (
{
closed = 1;
nodes = (
"682 -22 OFFCURVE",
"807 3 OFFCURVE",
"868 22 CURVE SMOOTH",
"1189 114 LINE",
"1160 270 LINE",
"740 165 LINE",
"730 227 OFFCURVE",
"725 394 OFFCURVE",
"725 665 CURVE SMOOTH",
"725 783 OFFCURVE",
"732 930 OFFCURVE",
"747 1105 CURVE SMOOTH",
"762 1280 OFFCURVE",
"769 1384 OFFCURVE",
"769 1418 CURVE SMOOTH",
"769 1469 OFFCURVE",
"751 1494 OFFCURVE",
"715 1494 CURVE SMOOTH",
"686 1494 OFFCURVE",
"641 1486 OFFCURVE",
"580 1471 CURVE",
"147 1347 LINE",
"140 1182 LINE",
"570 1297 LINE",
"553 1176 OFFCURVE",
"532 797 OFFCURVE",
"532 658 CURVE SMOOTH",
"532 494 OFFCURVE",
"542 102 OFFCURVE",
"559 53 CURVE SMOOTH",
"580 -4 OFFCURVE",
"613 -22 OFFCURVE",
"657 -22 CURVE SMOOTH"
);
}
);
width = 1329;
}
);
note = u10906;
unicode = 10906;
},
{
glyphname = u10907;
lastChange = "2016-11-10 14:50:45 +0000";
layers = (
{
layerId = "E64F79EC-8E07-4F15-92A9-999769EA1F8E";
paths = (
{
closed = 1;
nodes = (
"1177 20 LINE",
"1174 558 OFFCURVE",
"1151 1000 OFFCURVE",
"1109 1345 CURVE SMOOTH",
"1105 1380 OFFCURVE",
"1087 1398 OFFCURVE",
"1055 1398 CURVE",
"1027 1394 LINE",
"355 1225 LINE",
"336 1426 LINE",
"150 1402 LINE",
"175 1115 LINE SMOOTH",
"210 735 OFFCURVE",
"227 416 OFFCURVE",
"227 158 CURVE SMOOTH",
"227 99 OFFCURVE",
"247 77 OFFCURVE",
"288 77 CURVE SMOOTH",
"303 77 OFFCURVE",
"319 79 OFFCURVE",
"336 84 CURVE",
"985 250 LINE",
"985 -10 LINE"
);
},
{
closed = 1;
nodes = (
"410 425 OFFCURVE",
"407 528 OFFCURVE",
"404 581 CURVE",
"970 725 LINE",
"983 418 LINE",
"414 273 LINE"
);
},
{
closed = 1;
nodes = (
"386 880 OFFCURVE",
"377 984 OFFCURVE",
"370 1059 CURVE",
"933 1203 LINE",
"944 1094 OFFCURVE",
"952 990 OFFCURVE",
"959 891 CURVE",
"395 747 LINE"
);
}
);
width = 1317;
}
);
note = u10907;
unicode = 10907;
},
{
glyphname = u10908;
lastChange = "2016-11-10 14:50:45 +0000";
layers = (
{
layerId = "E64F79EC-8E07-4F15-92A9-999769EA1F8E";
paths = (
{
closed = 1;
nodes = (
"1281 -20 OFFCURVE",
"1506 222 OFFCURVE",
"1506 651 CURVE SMOOTH",
"1506 821 OFFCURVE",
"1478 969 OFFCURVE",
"1421 1095 CURVE SMOOTH",
"1307 1346 OFFCURVE",
"1082 1485 OFFCURVE",
"777 1485 CURVE SMOOTH",
"380 1485 OFFCURVE",
"150 1238 OFFCURVE",
"150 813 CURVE SMOOTH",
"150 290 OFFCURVE",
"419 -20 OFFCURVE",
"876 -20 CURVE SMOOTH"
);
},
{
closed = 1;
nodes = (
"531 142 OFFCURVE",
"345 384 OFFCURVE",
"345 812 CURVE SMOOTH",
"345 1148 OFFCURVE",
"492 1323 OFFCURVE",
"787 1323 CURVE SMOOTH",
"1122 1323 OFFCURVE",
"1312 1082 OFFCURVE",
"1312 654 CURVE SMOOTH",
"1312 318 OFFCURVE",
"1159 142 OFFCURVE",
"866 142 CURVE SMOOTH"
);
},
{
closed = 1;
nodes = (
"926 373 LINE",
"926 454 OFFCURVE",
"924 550 OFFCURVE",
"919 662 CURVE",
"1024 675 OFFCURVE",
"1123 691 OFFCURVE",
"1214 712 CURVE",
"1196 871 LINE",
"1108 852 OFFCURVE",
"1013 837 OFFCURVE",
"910 825 CURVE",
"906 885 OFFCURVE",
"897 987 OFFCURVE",
"882 1131 CURVE",
"703 1106 LINE",
"726 809 LINE",
"657 805 OFFCURVE",
"584 803 OFFCURVE",
"509 803 CURVE SMOOTH",
"436 804 LINE",
"446 643 LINE",
"463 643 LINE",
"509 642 LINE",
"526 642 LINE SMOOTH",
"610 642 OFFCURVE",
"679 644 OFFCURVE",
"734 647 CURVE",
"739 535 OFFCURVE",
"741 438 OFFCURVE",
"741 356 CURVE"
);
}
);
width = 1636;
}
);
note = u10908;
unicode = 10908;
},
{
glyphname = u10909;
lastChange = "2016-11-10 14:50:45 +0000";
layers = (
{
layerId = "E64F79EC-8E07-4F15-92A9-999769EA1F8E";
paths = (
{
closed = 1;
nodes = (
"476 203 OFFCURVE",
"500 207 OFFCURVE",
"528 215 CURVE SMOOTH",
"809 302 OFFCURVE",
"945 331 OFFCURVE",
"1125 350 CURVE",
"1087 512 LINE",
"874 481 OFFCURVE",
"742 453 OFFCURVE",
"567 400 CURVE",
"632 638 OFFCURVE",
"740 940 OFFCURVE",
"890 1306 CURVE",
"903 1346 OFFCURVE",
"910 1374 OFFCURVE",
"910 1390 CURVE SMOOTH",
"910 1457 OFFCURVE",
"877 1491 OFFCURVE",
"812 1491 CURVE SMOOTH",
"794 1491 OFFCURVE",
"772 1488 OFFCURVE",
"747 1482 CURVE SMOOTH",
"133 1356 LINE",
"120 1175 LINE",
"688 1297 LINE",
"643 1188 OFFCURVE",
"598 1068 OFFCURVE",
"551 937 CURVE",
"424 917 OFFCURVE",
"290 882 OFFCURVE",
"149 833 CURVE",
"129 673 LINE",
"265 716 OFFCURVE",
"386 746 OFFCURVE",
"491 765 CURVE",
"413 533 OFFCURVE",
"367 373 OFFCURVE",
"354 284 CURVE",
"366 230 OFFCURVE",
"400 203 OFFCURVE",
"455 203 CURVE SMOOTH"
);
}
);
width = 1245;
}
);
note = u10909;
unicode = 10909;
},
{
glyphname = u1090A;
lastChange = "2016-11-10 14:50:45 +0000";
layers = (
{
layerId = "E64F79EC-8E07-4F15-92A9-999769EA1F8E";
paths = (
{
closed = 1;
nodes = (
"800 403 OFFCURVE",
"955 886 OFFCURVE",
"1164 1425 CURVE",
"989 1482 LINE",
"930 1336 OFFCURVE",
"875 1188 OFFCURVE",
"822 1038 CURVE",
"671 1187 OFFCURVE",
"453 1359 OFFCURVE",
"258 1482 CURVE",
"148 1357 LINE",
"327 1244 OFFCURVE",
"565 1049 OFFCURVE",
"757 857 CURVE",
"552 788 OFFCURVE",
"333 702 OFFCURVE",
"100 597 CURVE",
"157 446 LINE",
"344 531 OFFCURVE",
"523 604 OFFCURVE",
"694 663 CURVE",
"611 406 OFFCURVE",
"554 197 OFFCURVE",
"524 35 CURVE",
"699 -24 LINE"
);
}
);
width = 1204;
}
);
note = u1090A;
unicode = 1090A;
},
{
glyphname = u1090B;
lastChange = "2016-11-10 14:50:45 +0000";
layers = (
{
layerId = "E64F79EC-8E07-4F15-92A9-999769EA1F8E";
paths = (
{
closed = 1;
nodes = (
"433 -15 OFFCURVE",
"724 32 OFFCURVE",
"961 108 CURVE",
"926 274 LINE",
"704 208 OFFCURVE",
"489 169 OFFCURVE",
"281 158 CURVE",
"291 202 OFFCURVE",
"322 284 OFFCURVE",
"373 404 CURVE SMOOTH",
"476 644 OFFCURVE",
"735 1186 OFFCURVE",
"818 1329 CURVE",
"653 1406 LINE",
"412 954 OFFCURVE",
"175 422 OFFCURVE",
"126 261 CURVE SMOOTH",
"103 189 OFFCURVE",
"80 124 OFFCURVE",
"80 83 CURVE SMOOTH",
"80 23 OFFCURVE",
"142 -15 OFFCURVE",
"226 -15 CURVE SMOOTH"
);
}
);
width = 1081;
}
);
note = u1090B;
unicode = 1090B;
},
{
glyphname = u1090C;
lastChange = "2016-11-10 14:50:45 +0000";
layers = (
{
layerId = "E64F79EC-8E07-4F15-92A9-999769EA1F8E";
paths = (
{
closed = 1;
nodes = (
"714 16 OFFCURVE",
"858 171 OFFCURVE",
"997 353 CURVE SMOOTH",
"1273 716 OFFCURVE",
"1421 1051 OFFCURVE",
"1421 1299 CURVE SMOOTH",
"1421 1390 OFFCURVE",
"1367 1449 OFFCURVE",
"1292 1449 CURVE SMOOTH",
"1239 1449 OFFCURVE",
"1214 1435 OFFCURVE",
"1170 1396 CURVE SMOOTH",
"890 1141 LINE",
"736 1338 LINE SMOOTH",
"708 1376 OFFCURVE",
"680 1395 OFFCURVE",
"651 1395 CURVE SMOOTH",
"624 1395 OFFCURVE",
"603 1387 OFFCURVE",
"564 1342 CURVE SMOOTH",
"394 1141 LINE",
"218 1488 LINE",
"60 1398 LINE",
"249 1020 LINE SMOOTH",
"279 961 OFFCURVE",
"317 931 OFFCURVE",
"364 931 CURVE SMOOTH",
"400 931 OFFCURVE",
"437 951 OFFCURVE",
"475 990 CURVE SMOOTH",
"636 1161 LINE",
"738 1038 LINE SMOOTH",
"793 970 OFFCURVE",
"815 955 OFFCURVE",
"870 955 CURVE SMOOTH",
"887 955 OFFCURVE",
"904 957 OFFCURVE",
"919 961 CURVE SMOOTH",
"949 969 OFFCURVE",
"985 987 OFFCURVE",
"1022 1015 CURVE SMOOTH",
"1040 1029 OFFCURVE",
"1111 1095 OFFCURVE",
"1234 1213 CURVE",
"1221 1117 OFFCURVE",
"1175 995 OFFCURVE",
"1096 847 CURVE SMOOTH",
"936 550 OFFCURVE",
"682 221 OFFCURVE",
"451 14 CURVE",
"564 -112 LINE"
);
}
);
width = 1561;
}
);
note = u1090C;
unicode = 1090C;
},
{
glyphname = u1090D;
lastChange = "2016-11-10 14:50:45 +0000";
layers = (
{
layerId = "E64F79EC-8E07-4F15-92A9-999769EA1F8E";
paths = (
{
closed = 1;
nodes = (
"700 322 OFFCURVE",
"939 892 OFFCURVE",
"939 1239 CURVE SMOOTH",
"939 1298 OFFCURVE",
"881 1348 OFFCURVE",
"813 1348 CURVE SMOOTH",
"771 1348 OFFCURVE",
"722 1325 OFFCURVE",
"666 1278 CURVE SMOOTH",
"610 1231 OFFCURVE",
"525 1161 OFFCURVE",
"410 1067 CURVE",
"239 1477 LINE",
"80 1397 LINE",
"257 947 LINE",
"274 896 OFFCURVE",
"312 864 OFFCURVE",
"359 864 CURVE SMOOTH",
"394 864 OFFCURVE",
"446 880 OFFCURVE",
"487 913 CURVE SMOOTH",
"733 1113 LINE",
"719 1008 OFFCURVE",
"691 895 OFFCURVE",
"648 772 CURVE SMOOTH",
"562 527 OFFCURVE",
"410 251 OFFCURVE",
"270 68 CURVE",
"419 -37 LINE"
);
}
);
width = 1079;
}
);
note = u1090D;
unicode = 1090D;
},
{
glyphname = u1090E;
lastChange = "2016-11-10 14:50:45 +0000";
layers = (
{
layerId = "E64F79EC-8E07-4F15-92A9-999769EA1F8E";
paths = (
{
closed = 1;
nodes = (
"813 197 OFFCURVE",
"803 395 OFFCURVE",
"786 583 CURVE",
"905 592 OFFCURVE",
"1019 597 OFFCURVE",
"1128 597 CURVE",
"1144 761 LINE",
"1006 758 OFFCURVE",
"881 753 OFFCURVE",
"770 744 CURVE",
"745 950 LINE",
"858 961 OFFCURVE",
"967 967 OFFCURVE",
"1072 970 CURVE",
"1084 1134 LINE",
"960 1129 OFFCURVE",
"839 1121 OFFCURVE",
"720 1110 CURVE",
"707 1189 OFFCURVE",
"694 1252 OFFCURVE",
"681 1299 CURVE",
"810 1308 OFFCURVE",
"931 1313 OFFCURVE",
"1044 1313 CURVE",
"1060 1477 LINE",
"795 1472 OFFCURVE",
"493 1446 OFFCURVE",
"156 1399 CURVE",
"140 1233 LINE",
"213 1248 OFFCURVE",
"327 1265 OFFCURVE",
"484 1282 CURVE",
"494 1242 OFFCURVE",
"507 1178 OFFCURVE",
"524 1089 CURVE",
"380 1071 OFFCURVE",
"267 1055 OFFCURVE",
"185 1041 CURVE",
"173 875 LINE",
"336 900 OFFCURVE",
"461 918 OFFCURVE",
"550 929 CURVE",
"559 878 OFFCURVE",
"568 810 OFFCURVE",
"577 727 CURVE",
"494 719 OFFCURVE",
"382 706 OFFCURVE",
"242 687 CURVE",
"226 521 LINE",
"363 540 OFFCURVE",
"486 555 OFFCURVE",
"594 566 CURVE",
"612 376 OFFCURVE",
"622 190 OFFCURVE",
"623 8 CURVE",
"816 -11 LINE"
);
}
);
width = 1284;
}
);
note = u1090E;
unicode = 1090E;
},
{
glyphname = u1090F;
lastChange = "2016-11-10 14:50:45 +0000";
layers = (
{
layerId = "E64F79EC-8E07-4F15-92A9-999769EA1F8E";
paths = (
{
closed = 1;
nodes = (
"834 472 OFFCURVE",
"943 492 OFFCURVE",
"1036 533 CURVE SMOOTH",
"1220 613 OFFCURVE",
"1332 783 OFFCURVE",
"1332 987 CURVE SMOOTH",
"1332 1080 OFFCURVE",
"1307 1166 OFFCURVE",
"1258 1245 CURVE SMOOTH",
"1158 1404 OFFCURVE",
"989 1485 OFFCURVE",
"780 1485 CURVE SMOOTH",
"659 1485 OFFCURVE",
"552 1463 OFFCURVE",
"458 1420 CURVE SMOOTH",
"269 1332 OFFCURVE",
"160 1167 OFFCURVE",
"160 975 CURVE SMOOTH",
"160 666 OFFCURVE",
"369 472 OFFCURVE",
"709 472 CURVE SMOOTH"
);
},
{
closed = 1;
nodes = (
"490 634 OFFCURVE",
"354 764 OFFCURVE",
"354 983 CURVE SMOOTH",
"354 1048 OFFCURVE",
"371 1106 OFFCURVE",
"405 1158 CURVE SMOOTH",
"472 1262 OFFCURVE",
"603 1323 OFFCURVE",
"774 1323 CURVE SMOOTH",
"843 1323 OFFCURVE",
"906 1308 OFFCURVE",
"962 1277 CURVE SMOOTH",
"1073 1215 OFFCURVE",
"1138 1103 OFFCURVE",
"1138 988 CURVE SMOOTH",
"1138 767 OFFCURVE",
"983 634 OFFCURVE",
"723 634 CURVE SMOOTH"
);
}
);
width = 1492;
}
);
note = u1090F;
unicode = 1090F;
},
{
glyphname = u10910;
lastChange = "2016-11-10 14:50:45 +0000";
layers = (
{
layerId = "E64F79EC-8E07-4F15-92A9-999769EA1F8E";
paths = (
{
closed = 1;
nodes = (
"836 382 OFFCURVE",
"976 825 OFFCURVE",
"976 1101 CURVE SMOOTH",
"976 1344 OFFCURVE",
"836 1484 OFFCURVE",
"588 1484 CURVE SMOOTH",
"331 1484 OFFCURVE",
"169 1365 OFFCURVE",
"100 1127 CURVE",
"282 1093 LINE",
"325 1246 OFFCURVE",
"420 1322 OFFCURVE",
"567 1322 CURVE SMOOTH",
"700 1322 OFFCURVE",
"782 1242 OFFCURVE",
"782 1115 CURVE SMOOTH",
"782 850 OFFCURVE",
"661 466 OFFCURVE",
"452 29 CURVE",
"628 -25 LINE"
);
}
);
width = 1126;
}
);
note = u10910;
unicode = 10910;
},
{
glyphname = u10911;
lastChange = "2016-11-10 14:50:45 +0000";
layers = (
{
layerId = "E64F79EC-8E07-4F15-92A9-999769EA1F8E";
paths = (
{
closed = 1;
nodes = (
"918 112 LINE",
"742 416 OFFCURVE",
"595 699 OFFCURVE",
"477 960 CURVE",
"565 1089 OFFCURVE",
"662 1184 OFFCURVE",
"769 1246 CURVE",
"883 1046 LINE SMOOTH",
"930 966 OFFCURVE",
"1001 920 OFFCURVE",
"1070 920 CURVE SMOOTH",
"1205 920 OFFCURVE",
"1317 1026 OFFCURVE",
"1461 1299 CURVE",
"1311 1367 LINE",
"1269 1276 OFFCURVE",
"1229 1207 OFFCURVE",
"1190 1160 CURVE SMOOTH",
"1151 1113 OFFCURVE",
"1116 1089 OFFCURVE",
"1085 1089 CURVE SMOOTH",
"1058 1089 OFFCURVE",
"1034 1107 OFFCURVE",
"1014 1144 CURVE SMOOTH",
"924 1312 LINE SMOOTH",
"886 1385 OFFCURVE",
"843 1422 OFFCURVE",
"796 1422 CURVE SMOOTH",
"693 1422 OFFCURVE",
"513 1290 OFFCURVE",
"401 1134 CURVE",
"346 1265 OFFCURVE",
"298 1391 OFFCURVE",
"259 1511 CURVE",
"80 1452 LINE",
"239 992 OFFCURVE",
"451 541 OFFCURVE",
"774 -8 CURVE"
);
}
);
width = 1561;
}
);
note = u10911;
unicode = 10911;
},
{
glyphname = u10912;
lastChange = "2016-11-10 14:50:45 +0000";
layers = (
{
layerId = "E64F79EC-8E07-4F15-92A9-999769EA1F8E";
paths = (
{
closed = 1;
nodes = (
"728 0 LINE",
"719 121 OFFCURVE",
"714 236 OFFCURVE",
"714 343 CURVE SMOOTH",
"718 508 LINE",
"1054 533 OFFCURVE",
"1260 714 OFFCURVE",
"1260 995 CURVE SMOOTH",
"1260 1088 OFFCURVE",
"1237 1172 OFFCURVE",
"1192 1247 CURVE SMOOTH",
"1100 1397 OFFCURVE",
"926 1485 OFFCURVE",
"729 1485 CURVE SMOOTH",
"626 1485 OFFCURVE",
"526 1464 OFFCURVE",
"431 1421 CURVE SMOOTH",
"240 1335 OFFCURVE",
"120 1173 OFFCURVE",
"120 985 CURVE SMOOTH",
"120 726 OFFCURVE",
"279 549 OFFCURVE",
"531 513 CURVE",
"526 329 LINE SMOOTH",
"526 270 OFFCURVE",
"530 161 OFFCURVE",
"539 0 CURVE"
);
},
{
closed = 1;
nodes = (
"392 704 OFFCURVE",
"307 807 OFFCURVE",
"307 966 CURVE SMOOTH",
"307 1142 OFFCURVE",
"440 1282 OFFCURVE",
"637 1315 CURVE",
"606 1175 OFFCURVE",
"566 917 OFFCURVE",
"543 676 CURVE"
);
},
{
closed = 1;
nodes = (
"747 865 OFFCURVE",
"785 1134 OFFCURVE",
"821 1311 CURVE",
"977 1271 OFFCURVE",
"1072 1147 OFFCURVE",
"1072 984 CURVE SMOOTH",
"1072 813 OFFCURVE",
"946 699 OFFCURVE",
"730 672 CURVE"
);
}
);
width = 1380;
}
);
note = u10912;
unicode = 10912;
},
{
glyphname = u10913;
lastChange = "2016-11-10 14:50:45 +0000";
layers = (
{
layerId = "E64F79EC-8E07-4F15-92A9-999769EA1F8E";
paths = (
{
closed = 1;
nodes = (
"1245 -162 LINE",
"1090 175 OFFCURVE",
"893 841 OFFCURVE",
"777 1362 CURVE SMOOTH",
"754 1459 OFFCURVE",
"738 1479 OFFCURVE",
"679 1479 CURVE SMOOTH",
"624 1479 OFFCURVE",
"550 1441 OFFCURVE",
"457 1365 CURVE SMOOTH",
"272 1213 OFFCURVE",
"112 980 OFFCURVE",
"100 833 CURVE",
"100 799 OFFCURVE",
"139 773 OFFCURVE",
"217 755 CURVE SMOOTH",
"294 736 OFFCURVE",
"400 727 OFFCURVE",
"534 727 CURVE SMOOTH",
"614 727 OFFCURVE",
"684 733 OFFCURVE",
"743 744 CURVE",
"834 421 OFFCURVE",
"944 97 OFFCURVE",
"1071 -227 CURVE"
);
},
{
closed = 1;
nodes = (
"434 892 OFFCURVE",
"362 898 OFFCURVE",
"303 911 CURVE",
"300 921 LINE",
"318 962 OFFCURVE",
"346 1006 OFFCURVE",
"383 1054 CURVE SMOOTH",
"457 1150 OFFCURVE",
"574 1259 OFFCURVE",
"618 1279 CURVE",
"636 1170 OFFCURVE",
"663 1045 OFFCURVE",
"699 906 CURVE",
"646 897 OFFCURVE",
"586 892 OFFCURVE",
"517 892 CURVE SMOOTH"
);
}
);
width = 1245;
}
);
note = u10913;
unicode = 10913;
},
{
glyphname = u10914;
lastChange = "2016-11-10 14:40:32 +0000";
layers = (
{
layerId = "E64F79EC-8E07-4F15-92A9-999769EA1F8E";
paths = (
{
closed = 1;
nodes = (
"1058 436 OFFCURVE",
"1086 447 OFFCURVE",
"1108 469 CURVE SMOOTH",
"1151 512 OFFCURVE",
"1204 625 OFFCURVE",
"1270 801 CURVE SMOOTH",
"1336 976 OFFCURVE",
"1388 1147 OFFCURVE",
"1408 1254 CURVE",
"1230 1307 LINE",
"1163 1034 OFFCURVE",
"1097 834 OFFCURVE",
"1032 709 CURVE",
"997 800 OFFCURVE",
"956 967 OFFCURVE",
"909 1208 CURVE SMOOTH",
"868 1411 LINE SMOOTH",
"856 1464 OFFCURVE",
"833 1504 OFFCURVE",
"777 1504 CURVE SMOOTH",
"742 1504 OFFCURVE",
"690 1443 OFFCURVE",
"619 1321 CURVE SMOOTH",
"548 1199 OFFCURVE",
"478 1054 OFFCURVE",
"407 885 CURVE",
"360 975 OFFCURVE",
"301 1167 OFFCURVE",
"230 1461 CURVE",
"60 1408 LINE",
"76 1332 OFFCURVE",
"97 1248 OFFCURVE",
"122 1155 CURVE SMOOTH",
"173 970 OFFCURVE",
"219 846 OFFCURVE",
"268 755 CURVE SMOOTH",
"317 663 OFFCURVE",
"342 656 OFFCURVE",
"407 656 CURVE SMOOTH",
"424 656 OFFCURVE",
"440 659 OFFCURVE",
"455 665 CURVE SMOOTH",
"484 676 OFFCURVE",
"516 708 OFFCURVE",
"541 768 CURVE SMOOTH",
"634 993 OFFCURVE",
"701 1124 OFFCURVE",
"741 1162 CURVE",
"762 1013 OFFCURVE",
"828 744 OFFCURVE",
"885 593 CURVE SMOOTH",
"913 518 OFFCURVE",
"936 473 OFFCURVE",
"955 458 CURVE SMOOTH",
"973 443 OFFCURVE",
"996 436 OFFCURVE",
"1025 436 CURVE SMOOTH"
);
}
);
width = 1538;
}
);
note = u10914;
unicode = 10914;
},
{
glyphname = u10915;
lastChange = "2016-11-10 14:50:45 +0000";
layers = (
{
layerId = "E64F79EC-8E07-4F15-92A9-999769EA1F8E";
paths = (
{
closed = 1;
nodes = (
"715 321 OFFCURVE",
"748 549 OFFCURVE",
"793 739 CURVE",
"1002 755 OFFCURVE",
"1170 764 OFFCURVE",
"1299 767 CURVE",
"1311 931 LINE",
"1156 925 OFFCURVE",
"998 916 OFFCURVE",
"835 905 CURVE",
"862 1008 OFFCURVE",
"908 1160 OFFCURVE",
"972 1362 CURVE",
"798 1413 LINE",
"726 1202 OFFCURVE",
"672 1027 OFFCURVE",
"637 890 CURVE",
"450 873 OFFCURVE",
"308 856 OFFCURVE",
"212 841 CURVE",
"200 675 LINE",
"297 690 OFFCURVE",
"429 706 OFFCURVE",
"596 723 CURVE",
"552 524 OFFCURVE",
"522 309 OFFCURVE",
"505 78 CURVE",
"692 54 LINE"
);
}
);
width = 1511;
}
);
note = u10915;
unicode = 10915;
},
{
glyphname = u10916;
lastChange = "2016-11-10 14:50:45 +0000";
layers = (
{
layerId = "E64F79EC-8E07-4F15-92A9-999769EA1F8E";
paths = (
{
closed = 1;
nodes = (
"519 537 OFFCURVE",
"602 1083 OFFCURVE",
"622 1450 CURVE",
"436 1476 LINE",
"401 1031 OFFCURVE",
"329 548 OFFCURVE",
"220 28 CURVE",
"404 -22 LINE"
);
}
);
width = 822;
}
);
note = u10916;
unicode = 10916;
},
{
glyphname = u10917;
lastChange = "2016-11-10 14:40:32 +0000";
layers = (
{
layerId = "E64F79EC-8E07-4F15-92A9-999769EA1F8E";
paths = (
{
closed = 1;
nodes = (
"1280 454 OFFCURVE",
"1324 560 OFFCURVE",
"1324 671 CURVE SMOOTH",
"1324 819 OFFCURVE",
"1245 901 OFFCURVE",
"1112 901 CURVE SMOOTH",
"863 901 OFFCURVE",
"531 892 OFFCURVE",
"115 873 CURVE",
"92 699 LINE",
"641 724 OFFCURVE",
"952 736 OFFCURVE",
"1027 736 CURVE SMOOTH",
"1100 736 OFFCURVE",
"1129 720 OFFCURVE",
"1129 661 CURVE SMOOTH",
"1129 610 OFFCURVE",
"1107 564 OFFCURVE",
"1062 523 CURVE",
"1196 378 LINE"
);
}
);
width = 1384;
}
);
note = u10917;
unicode = 10917;
},
{
glyphname = u10918;
lastChange = "2016-11-10 14:40:32 +0000";
layers = (
{
layerId = "E64F79EC-8E07-4F15-92A9-999769EA1F8E";
paths = (
{
closed = 1;
nodes = (
"525 261 OFFCURVE",
"605 350 OFFCURVE",
"684 451 CURVE SMOOTH",
"841 651 OFFCURVE",
"944 852 OFFCURVE",
"944 945 CURVE SMOOTH",
"944 1006 OFFCURVE",
"910 1047 OFFCURVE",
"858 1047 CURVE SMOOTH",
"843 1047 OFFCURVE",
"826 1045 OFFCURVE",
"807 1041 CURVE",
"787 1036 OFFCURVE",
"743 1023 OFFCURVE",
"676 1001 CURVE SMOOTH",
"546 958 OFFCURVE",
"454 935 OFFCURVE",
"399 934 CURVE",
"422 982 OFFCURVE",
"484 1066 OFFCURVE",
"586 1185 CURVE SMOOTH",
"677 1292 OFFCURVE",
"723 1360 OFFCURVE",
"723 1388 CURVE SMOOTH",
"723 1436 OFFCURVE",
"694 1462 OFFCURVE",
"639 1475 CURVE SMOOTH",
"612 1481 OFFCURVE",
"565 1484 OFFCURVE",
"499 1484 CURVE SMOOTH",
"414 1484 OFFCURVE",
"289 1471 OFFCURVE",
"124 1445 CURVE SMOOTH",
"85 1440 LINE",
"100 1278 LINE",
"199 1295 OFFCURVE",
"271 1307 OFFCURVE",
"316 1312 CURVE SMOOTH",
"361 1317 OFFCURVE",
"401 1319 OFFCURVE",
"437 1319 CURVE",
"494 1316 LINE",
"430 1256 OFFCURVE",
"280 1068 OFFCURVE",
"229 980 CURVE SMOOTH",
"204 936 OFFCURVE",
"191 905 OFFCURVE",
"191 887 CURVE SMOOTH",
"191 798 OFFCURVE",
"222 768 OFFCURVE",
"305 768 CURVE SMOOTH",
"412 768 OFFCURVE",
"579 802 OFFCURVE",
"736 850 CURVE",
"661 685 OFFCURVE",
"503 476 OFFCURVE",
"330 308 CURVE",
"444 183 LINE"
);
}
);
width = 1084;
}
);
note = u10918;
unicode = 10918;
},
{
glyphname = u10919;
lastChange = "2016-11-10 14:50:45 +0000";
layers = (
{
layerId = "E64F79EC-8E07-4F15-92A9-999769EA1F8E";
paths = (
{
closed = 1;
nodes = (
"1254 113 LINE",
"1161 415 OFFCURVE",
"1055 698 OFFCURVE",
"935 962 CURVE",
"1016 1131 OFFCURVE",
"1088 1259 OFFCURVE",
"1151 1346 CURVE",
"1001 1448 LINE",
"939 1361 OFFCURVE",
"883 1269 OFFCURVE",
"834 1174 CURVE",
"809 1225 OFFCURVE",
"782 1274 OFFCURVE",
"753 1323 CURVE SMOOTH",
"694 1420 OFFCURVE",
"657 1477 OFFCURVE",
"606 1477 CURVE SMOOTH",
"579 1477 OFFCURVE",
"551 1467 OFFCURVE",
"524 1446 CURVE SMOOTH",
"496 1425 OFFCURVE",
"450 1372 OFFCURVE",
"386 1288 CURVE SMOOTH",
"258 1120 OFFCURVE",
"133 907 OFFCURVE",
"40 706 CURVE",
"185 619 LINE",
"292 838 OFFCURVE",
"435 1065 OFFCURVE",
"574 1236 CURVE",
"770 891 OFFCURVE",
"939 491 OFFCURVE",
"1080 35 CURVE"
);
}
);
width = 1455;
}
);
note = u10919;
unicode = 10919;
},
{
glyphname = two_ph;
lastChange = "2016-11-10 14:50:51 +0000";
layers = (
{
layerId = "E64F79EC-8E07-4F15-92A9-999769EA1F8E";
paths = (
{
closed = 1;
nodes = (
"929 537 OFFCURVE",
"1012 1083 OFFCURVE",
"1032 1450 CURVE",
"846 1476 LINE",
"811 1031 OFFCURVE",
"739 548 OFFCURVE",
"630 28 CURVE",
"814 -22 LINE"
);
},
{
closed = 1;
nodes = (
"519 537 OFFCURVE",
"602 1083 OFFCURVE",
"622 1450 CURVE",
"436 1476 LINE",
"401 1031 OFFCURVE",
"329 548 OFFCURVE",
"220 28 CURVE",
"404 -22 LINE"
);
}
);
width = 1232;
}
);
note = two_ph;
},
{
glyphname = three_ph;
lastChange = "2016-11-10 14:50:51 +0000";
layers = (
{
layerId = "E64F79EC-8E07-4F15-92A9-999769EA1F8E";
paths = (
{
closed = 1;
nodes = (
"1299 537 OFFCURVE",
"1382 1083 OFFCURVE",
"1402 1450 CURVE",
"1216 1476 LINE",
"1181 1031 OFFCURVE",
"1109 548 OFFCURVE",
"1000 28 CURVE",
"1184 -22 LINE"
);
},
{
closed = 1;
nodes = (
"519 537 OFFCURVE",
"602 1083 OFFCURVE",
"622 1450 CURVE",
"436 1476 LINE",
"401 1031 OFFCURVE",
"329 548 OFFCURVE",
"220 28 CURVE",
"404 -22 LINE"
);
},
{
closed = 1;
nodes = (
"909 537 OFFCURVE",
"992 1083 OFFCURVE",
"1012 1450 CURVE",
"826 1476 LINE",
"791 1031 OFFCURVE",
"719 548 OFFCURVE",
"610 28 CURVE",
"794 -22 LINE"
);
}
);
width = 1602;
}
);
note = three_ph;
},
{
glyphname = u1091F;
lastChange = "2016-11-10 14:50:45 +0000";
layers = (
{
layerId = "E64F79EC-8E07-4F15-92A9-999769EA1F8E";
paths = (
{
closed = 1;
nodes = (
"330 627 OFFCURVE",
"408 697 OFFCURVE",
"408 788 CURVE SMOOTH",
"408 867 OFFCURVE",
"345 935 OFFCURVE",
"262 935 CURVE SMOOTH",
"174 935 OFFCURVE",
"100 859 OFFCURVE",
"100 772 CURVE SMOOTH",
"100 689 OFFCURVE",
"165 627 OFFCURVE",
"245 627 CURVE SMOOTH"
);
}
);
width = 508;
}
);
note = u1091F;
unicode = 1091F;
},
